<svg width="57" height="209" viewBox="0 0 57 209" fill="none" xmlns="http://www.w3.org/2000/svg">
<circle cx="5.38389" cy="5.38389" r="4.56475" stroke="#283A8F" stroke-opacity="0.7" stroke-width="1.63828"/>
<circle cx="5.38389" cy="93.3151" r="4.56475" stroke="#283A8F" stroke-opacity="0.7" stroke-width="1.63828"/>
<circle cx="5.38389" cy="49.3495" r="4.56475" stroke="#283A8F" stroke-opacity="0.7" stroke-width="1.63828"/>
<circle cx="5.38389" cy="137.281" r="4.56475" stroke="#283A8F" stroke-opacity="0.7" stroke-width="1.63828"/>
<circle cx="5.38389" cy="27.3667" r="4.56475" stroke="#283A8F" stroke-opacity="0.7" stroke-width="1.63828"/>
<circle cx="5.38389" cy="115.298" r="4.56475" stroke="#283A8F" stroke-opacity="0.7" stroke-width="1.63828"/>
<circle cx="5.38389" cy="71.3323" r="4.56475" stroke="#283A8F" stroke-opacity="0.7" stroke-width="1.63828"/>
<circle cx="5.38389" cy="159.264" r="4.56475" stroke="#283A8F" stroke-opacity="0.7" stroke-width="1.63828"/>
<circle cx="5.38389" cy="181.499" r="4.56475" stroke="#283A8F" stroke-opacity="0.7" stroke-width="1.63828"/>
<circle cx="5.38389" cy="203.616" r="4.56475" stroke="#283A8F" stroke-opacity="0.7" stroke-width="1.63828"/>
<circle cx="28.026" cy="5.38389" r="4.56475" stroke="#283A8F" stroke-opacity="0.7" stroke-width="1.63828"/>
<circle cx="28.026" cy="93.3151" r="4.56475" stroke="#283A8F" stroke-opacity="0.7" stroke-width="1.63828"/>
<circle cx="28.026" cy="49.3495" r="4.56475" stroke="#283A8F" stroke-opacity="0.7" stroke-width="1.63828"/>
<circle cx="28.026" cy="137.281" r="4.56475" stroke="#283A8F" stroke-opacity="0.7" stroke-width="1.63828"/>
<circle cx="28.026" cy="27.3667" r="4.56475" stroke="#283A8F" stroke-opacity="0.7" stroke-width="1.63828"/>
<circle cx="28.026" cy="115.298" r="4.56475" stroke="#283A8F" stroke-opacity="0.7" stroke-width="1.63828"/>
<circle cx="28.026" cy="71.3323" r="4.56475" stroke="#283A8F" stroke-opacity="0.7" stroke-width="1.63828"/>
<circle cx="28.026" cy="159.264" r="4.56475" stroke="#283A8F" stroke-opacity="0.7" stroke-width="1.63828"/>
<circle cx="28.026" cy="181.499" r="4.56475" stroke="#283A8F" stroke-opacity="0.7" stroke-width="1.63828"/>
<circle cx="28.026" cy="203.616" r="4.56475" stroke="#283A8F" stroke-opacity="0.7" stroke-width="1.63828"/>
<circle cx="50.6686" cy="5.38389" r="4.56475" stroke="#283A8F" stroke-opacity="0.7" stroke-width="1.63828"/>
<circle cx="50.6686" cy="93.3151" r="4.56475" stroke="#283A8F" stroke-opacity="0.7" stroke-width="1.63828"/>
<circle cx="50.6686" cy="49.3495" r="4.56475" stroke="#283A8F" stroke-opacity="0.7" stroke-width="1.63828"/>
<circle cx="50.6686" cy="137.281" r="4.56475" stroke="#283A8F" stroke-opacity="0.7" stroke-width="1.63828"/>
<circle cx="50.6686" cy="27.3667" r="4.56475" stroke="#283A8F" stroke-opacity="0.7" stroke-width="1.63828"/>
<circle cx="50.6686" cy="115.298" r="4.56475" stroke="#283A8F" stroke-opacity="0.7" stroke-width="1.63828"/>
<circle cx="50.6686" cy="71.3323" r="4.56475" stroke="#283A8F" stroke-opacity="0.7" stroke-width="1.63828"/>
<circle cx="50.6686" cy="159.264" r="4.56475" stroke="#283A8F" stroke-opacity="0.7" stroke-width="1.63828"/>
<circle cx="50.6686" cy="181.499" r="4.56475" stroke="#283A8F" stroke-opacity="0.7" stroke-width="1.63828"/>
<circle cx="50.6686" cy="203.616" r="4.56475" stroke="#283A8F" stroke-opacity="0.7" stroke-width="1.63828"/>
</svg>
